<?xml version="1.0" encoding="UTF-8"?>
<svg version="1.1" viewBox="0 0 2048 1278" width="820" height="512" xmlns="http://www.w3.org/2000/svg">
<path transform="translate(0)" d="m0 0h2048v1278h-2048z" fill="#0685CA"/>
<path transform="translate(1403)" d="m0 0h645v1278h-646v-1l34-6 30-8 26-10 19-9 17-10 16-11 14-11 14-12 18-18 9-11 10-13 12-18 10-18 9-19 9-24 6-22 4-21 3-31v-735l-2-22-6-31-7-24-10-25-12-24-12-19-13-17-12-14-22-22-11-9-18-13-16-10-18-10-23-10-27-9-26-6-24-4z" fill="#FAFAFA"/>
<path transform="translate(0)" d="m0 0h645v1l-30 5-27 7-23 8-20 9-17 9-19 12-16 12-11 9-16 15-11 12-8 10-12 16-11 18-12 23-8 19-8 24-6 27-3 20-1 14v739l3 28 6 29 9 27 10 23 10 19 11 17 11 15 8 10 9 10 17 17 11 9 14 11 20 13 22 12 21 9 27 9 28 6 25 4v1h-648z" fill="#FAFAFA"/>
<path transform="translate(1199,520)" d="m0 0h17l29 2 25 5 17 6 16 8 14 10 10 9 10 12 11 18 7 16 6 18 6 29 3 28 1 14v265h-133l-1-46v-178l-1-24-2-16-6-21-6-11-7-9-10-7-14-6-10-2h-26l-17 4-14 7-10 8-8 10-8 17-5 21-2 19-1 233-2 2h-131l-1-1v-425l1-4h127l1 1 1 54 10-14 11-12 10-9 14-10 19-10 21-7 16-3z" fill="#FAFAFA"/>
<path transform="translate(740,531)" d="m0 0h131l1 1v427l-1 1h-132l-1-27v-379l1-22z" fill="#FAFAFA"/>
<path transform="translate(799,318)" d="m0 0h16l15 3 12 5 14 9 6 5 11 14 7 15 4 17v18l-3 14-5 12-7 12-10 11-11 8-14 7-15 4h-24l-15-4-16-8-9-7-9-9-7-11-6-13-4-20v-11l3-16 5-12 7-12 11-12 14-10 12-5 11-3z" fill="#FAFAFA"/>
</svg>
